<?xml version="1.0" encoding="UTF-8" standalone="no"?>
<!-- Created with Inkscape (http://www.inkscape.org/) -->

<svg
   xmlns:dc="http://purl.org/dc/elements/1.1/"
   xmlns:cc="http://creativecommons.org/ns#"
   xmlns:rdf="http://www.w3.org/1999/02/22-rdf-syntax-ns#"
   xmlns:svg="http://www.w3.org/2000/svg"
   xmlns="http://www.w3.org/2000/svg"
   xmlns:sodipodi="http://sodipodi.sourceforge.net/DTD/sodipodi-0.dtd"
   xmlns:inkscape="http://www.inkscape.org/namespaces/inkscape"
   version="1.1"
   width="16"
   height="14"
   id="svg3020"
   sodipodi:docname="DockLeft.svg"
   inkscape:version="0.92.1 r15371">
  <sodipodi:namedview
     pagecolor="#ffffff"
     bordercolor="#666666"
     borderopacity="1"
     objecttolerance="10"
     gridtolerance="10"
     guidetolerance="10"
     inkscape:pageopacity="0"
     inkscape:pageshadow="2"
     inkscape:window-width="1920"
     inkscape:window-height="1031"
     id="namedview6"
     showgrid="false"
     inkscape:zoom="60.571429"
     inkscape:cx="7.9999999"
     inkscape:cy="7"
     inkscape:window-x="0"
     inkscape:window-y="25"
     inkscape:window-maximized="1"
     inkscape:current-layer="svg3020" />
  <defs
     id="defs3022" />
  <metadata
     id="metadata3025">
    <rdf:RDF>
      <cc:Work
         rdf:about="">
        <dc:format>image/svg+xml</dc:format>
        <dc:type
           rdf:resource="http://purl.org/dc/dcmitype/StillImage" />
        <dc:title />
        <cc:license
           rdf:resource="http://creativecommons.org/licenses/by-sa/3.0/" />
      </cc:Work>
      <cc:License
         rdf:about="http://creativecommons.org/licenses/by-sa/3.0/">
        <cc:permits
           rdf:resource="http://creativecommons.org/ns#Reproduction" />
        <cc:permits
           rdf:resource="http://creativecommons.org/ns#Distribution" />
        <cc:requires
           rdf:resource="http://creativecommons.org/ns#Notice" />
        <cc:requires
           rdf:resource="http://creativecommons.org/ns#Attribution" />
        <cc:permits
           rdf:resource="http://creativecommons.org/ns#DerivativeWorks" />
        <cc:requires
           rdf:resource="http://creativecommons.org/ns#ShareAlike" />
      </cc:License>
    </rdf:RDF>
  </metadata>
  <path
     d="m 13.723363,1 c 0.687838,0.05559 1.284229,0.5950559 1.28125,1.1875 v 9.625 c 0.002,0.03747 0.002,0.05628 0,0.09375 V 13 h -1.1875 -0.21875 -11.1875005 -0.125 -1.28125 v -0.96875 c -0.0082,-0.07477 -0.0082,-0.143979 0,-0.21875 V 2.1875 C 1.0046855,1.5592677 1.6782475,1.0000628 2.4108625,1 H 13.598363 c 0.04369,-0.00176 0.08131,-0.00176 0.125,0 z m -1.71875,2 h -0.75 -0.09375 -3.1875005 -0.0625 c -0.017326,-5.328e-4 -0.045174,-5.328e-4 -0.0625,0 h -0.0625 -0.78125 v 0.65625 c -0.00211,0.034616 -0.00211,0.059135 0,0.09375 -0.010826,0.077482 -0.010826,0.172518 0,0.25 V 7.15625 7.25 8 h 0.65625 0.03125 c 0.7437836,0 1,-0.093119 1,-0.84375 V 5.875 L 10.567113,7.75 c 0.132357,0.1301481 0.315437,0.230046 0.5,0.25 0.69913,0.1148836 1.23725,-0.954711 0.71875,-1.4375 L 9.8796125,4.65625 h 1.2812505 c 0.654639,0 0.84375,-0.3313501 0.84375,-0.96875 z M 6.0046125,3 h -3 v 8 h 3 z"
     id="rect13039-7"
     style="color:#000000;font-style:normal;font-variant:normal;font-weight:normal;font-stretch:normal;font-size:medium;line-height:normal;font-family:Sans;-inkscape-font-specification:Sans;text-indent:0;text-align:start;text-decoration:none;text-decoration-line:none;letter-spacing:normal;word-spacing:normal;text-transform:none;writing-mode:lr-tb;direction:ltr;baseline-shift:baseline;text-anchor:start;display:inline;overflow:visible;visibility:visible;fill:#123456;fill-opacity:1;stroke:none;stroke-width:2;marker:none;enable-background:new"
     inkscape:connector-curvature="0" />
</svg>
