<?xml version="1.0" encoding="UTF-8" standalone="no"?>
<!-- Created with Inkscape (http://www.inkscape.org/) -->

<svg
   xmlns:dc="http://purl.org/dc/elements/1.1/"
   xmlns:cc="http://creativecommons.org/ns#"
   xmlns:rdf="http://www.w3.org/1999/02/22-rdf-syntax-ns#"
   xmlns:svg="http://www.w3.org/2000/svg"
   xmlns="http://www.w3.org/2000/svg"
   xmlns:sodipodi="http://sodipodi.sourceforge.net/DTD/sodipodi-0.dtd"
   xmlns:inkscape="http://www.inkscape.org/namespaces/inkscape"
   version="1.1"
   width="100%"
   height="100%"
   viewBox="0 0 16 16"
   id="svg2"
   sodipodi:docname="Network.svg"
   inkscape:version="0.92.1 r15371">
  <sodipodi:namedview
     pagecolor="#ffffff"
     bordercolor="#666666"
     borderopacity="1"
     objecttolerance="10"
     gridtolerance="10"
     guidetolerance="10"
     inkscape:pageopacity="0"
     inkscape:pageshadow="2"
     inkscape:window-width="1920"
     inkscape:window-height="1031"
     id="namedview7"
     showgrid="false"
     inkscape:zoom="53"
     inkscape:cx="8.0754717"
     inkscape:cy="8"
     inkscape:window-x="0"
     inkscape:window-y="25"
     inkscape:window-maximized="1"
     inkscape:current-layer="svg2" />
  <metadata
     id="metadata10">
    <rdf:RDF>
      <cc:Work
         rdf:about="">
        <dc:format>image/svg+xml</dc:format>
        <dc:type
           rdf:resource="http://purl.org/dc/dcmitype/StillImage" />
        <dc:title />
        <cc:license
           rdf:resource="http://creativecommons.org/licenses/by-sa/3.0/" />
      </cc:Work>
      <cc:License
         rdf:about="http://creativecommons.org/licenses/by-sa/3.0/">
        <cc:permits
           rdf:resource="http://creativecommons.org/ns#Reproduction" />
        <cc:permits
           rdf:resource="http://creativecommons.org/ns#Distribution" />
        <cc:requires
           rdf:resource="http://creativecommons.org/ns#Notice" />
        <cc:requires
           rdf:resource="http://creativecommons.org/ns#Attribution" />
        <cc:permits
           rdf:resource="http://creativecommons.org/ns#DerivativeWorks" />
        <cc:requires
           rdf:resource="http://creativecommons.org/ns#ShareAlike" />
      </cc:License>
    </rdf:RDF>
  </metadata>
  <defs
     id="defs8" />
  <path
     d="M 4.5760679,6.9614597 C 4.2547124,6.9615013 3.93775,7.0554476 3.732254,7.2535492 L 1.770094e-7,11.115621 3.7971628,14.977692 c 0.2053298,0.198371 0.4575289,0.292079 0.7789051,0.292089 l 1.0385402,0 0,-1.03854 c -5.19e-5,-0.26678 -0.134574,-0.549086 -0.3245438,-0.746451 l -1.3306296,-1.330629 4.7707836,0 c 0.5486712,0.0073 1.0385402,-0.489817 1.0385402,-1.03854 0,-0.548724 -0.489869,-1.046299 -1.0385402,-1.038541 l -4.803238,0 1.2657209,-1.3306293 C 5.3824736,8.5488788 5.6145977,8.2668009 5.6146081,7.9999999 l 0,-1.0385402 z"
     id="path16181"
     style="font-size:medium;font-style:normal;font-variant:normal;font-weight:normal;font-stretch:normal;text-indent:0;text-align:start;text-decoration:none;line-height:normal;letter-spacing:normal;word-spacing:normal;text-transform:none;direction:ltr;block-progression:tb;writing-mode:lr-tb;text-anchor:start;baseline-shift:baseline;color:#000000;fill:#123456;fill-opacity:1;stroke:none;stroke-width:1.99999976;marker:none;visibility:visible;display:inline;overflow:visible;enable-background:accumulate;font-family:Sans;-inkscape-font-specification:Sans" />
  <path
     d="m 11.423932,9.0385401 c 0.321355,-4.15e-5 0.638318,-0.093988 0.843814,-0.2920894 L 16,4.8843793 12.202837,1.022308 C 11.997507,0.8239364 11.745308,0.73022892 11.423932,0.73021854 l -1.03854,0 0,1.03854016 c 5.2e-5,0.2667802 0.134574,0.5490866 0.324544,0.7464508 l 1.330629,1.3306296 -5.3874271,0 c -0.5486711,-0.00727 -1.0385402,0.4898171 -1.0385402,1.0385402 0,0.5487231 0.4898691,1.0462981 1.0385402,1.0385402 l 5.4198821,0 -1.265721,1.3306297 C 10.617526,7.4511211 10.385402,7.733199 10.385392,7.9999999 l 0,1.0385402 z"
     id="path16183"
     style="font-size:medium;font-style:normal;font-variant:normal;font-weight:normal;font-stretch:normal;text-indent:0;text-align:start;text-decoration:none;line-height:normal;letter-spacing:normal;word-spacing:normal;text-transform:none;direction:ltr;block-progression:tb;writing-mode:lr-tb;text-anchor:start;baseline-shift:baseline;color:#000000;fill:#123456;fill-opacity:1;stroke:none;stroke-width:2;marker:none;visibility:visible;display:inline;overflow:visible;enable-background:accumulate;font-family:Sans;-inkscape-font-specification:Sans" />
</svg>
