<?xml version="1.0" encoding="UTF-8" standalone="no"?>
<!-- Created with Inkscape (http://www.inkscape.org/) -->

<svg
   xmlns:dc="http://purl.org/dc/elements/1.1/"
   xmlns:cc="http://creativecommons.org/ns#"
   xmlns:rdf="http://www.w3.org/1999/02/22-rdf-syntax-ns#"
   xmlns:svg="http://www.w3.org/2000/svg"
   xmlns="http://www.w3.org/2000/svg"
   xmlns:sodipodi="http://sodipodi.sourceforge.net/DTD/sodipodi-0.dtd"
   xmlns:inkscape="http://www.inkscape.org/namespaces/inkscape"
   version="1.1"
   width="16"
   height="14"
   id="svg3020"
   sodipodi:docname="Undock.svg"
   inkscape:version="0.92.1 r15371">
  <sodipodi:namedview
     pagecolor="#ffffff"
     bordercolor="#666666"
     borderopacity="1"
     objecttolerance="10"
     gridtolerance="10"
     guidetolerance="10"
     inkscape:pageopacity="0"
     inkscape:pageshadow="2"
     inkscape:window-width="1920"
     inkscape:window-height="1031"
     id="namedview6"
     showgrid="false"
     inkscape:zoom="16.857143"
     inkscape:cx="1.5338983"
     inkscape:cy="7"
     inkscape:window-x="0"
     inkscape:window-y="25"
     inkscape:window-maximized="1"
     inkscape:current-layer="svg3020" />
  <defs
     id="defs3022" />
  <metadata
     id="metadata3025">
    <rdf:RDF>
      <cc:Work
         rdf:about="">
        <dc:format>image/svg+xml</dc:format>
        <dc:type
           rdf:resource="http://purl.org/dc/dcmitype/StillImage" />
        <dc:title />
        <cc:license
           rdf:resource="http://creativecommons.org/licenses/by-sa/3.0/" />
      </cc:Work>
      <cc:License
         rdf:about="http://creativecommons.org/licenses/by-sa/3.0/">
        <cc:permits
           rdf:resource="http://creativecommons.org/ns#Reproduction" />
        <cc:permits
           rdf:resource="http://creativecommons.org/ns#Distribution" />
        <cc:requires
           rdf:resource="http://creativecommons.org/ns#Notice" />
        <cc:requires
           rdf:resource="http://creativecommons.org/ns#Attribution" />
        <cc:permits
           rdf:resource="http://creativecommons.org/ns#DerivativeWorks" />
        <cc:requires
           rdf:resource="http://creativecommons.org/ns#ShareAlike" />
      </cc:License>
    </rdf:RDF>
  </metadata>
  <path
     d="M 1.90625,1.4375 C 1.415208,1.477185 0.997874,1.858309 1,2.28125 l 0,6.875 C 0.9985,9.183 0.9985,9.192 1,9.21875 L 1,10 1.84375,10 2,10 l 2.28125,0 0,-4.71875 C 4.2767,4.3770479 5.0160929,3.7856403 5.84375,3.71875 l 0.03125,0 0.03125,0 c 0.039713,-0.0016 0.053172,-0.00107 0.09375,0 0.00812,2.133e-4 0.023307,-3.199e-4 0.03125,0 l 4.96875,0 0,-1.4375 C 10.999948,1.8327601 10.523008,1.4375448 10,1.4375 l -8,0 c -0.03119,-0.00126 -0.06256,-0.00126 -0.09375,0 z m 4,3 C 5.4152062,4.4771856 4.9978733,4.8583079 5,5.28125 l 0,6.875 C 4.99854,12.183 4.99854,12.192 5,12.21875 L 5,13 5.84375,13 6,13 14,13 14.09375,13 15,13 15,12.3125 c 0.0059,-0.05338 0.0059,-0.102871 0,-0.15625 l 0,-6.875 C 14.999947,4.8327589 14.523009,4.4375448 14,4.4375 l -8,0 c -0.031193,-0.00126 -0.062557,-0.00126 -0.09375,0 z m 0.53125,2.4375 7.125,0 0,4.6875 -7.125,0 0,-4.6875 z"
     id="rect13039-7-3"
     style="font-size:medium;font-style:normal;font-variant:normal;font-weight:normal;font-stretch:normal;text-indent:0;text-align:start;text-decoration:none;line-height:normal;letter-spacing:normal;word-spacing:normal;text-transform:none;direction:ltr;block-progression:tb;writing-mode:lr-tb;text-anchor:start;baseline-shift:baseline;color:#000000;fill-opacity:1;stroke:none;stroke-width:2;marker:none;visibility:visible;display:inline;overflow:visible;enable-background:new;font-family:Sans;-inkscape-font-specification:Sans;fill:#123456" />
</svg>
